<svg xmlns="http://www.w3.org/2000/svg" width="500" height="500" viewBox="0 0 500 500" version="1.1"><path d="M 223 102.995 C 188.460 109.566, 156.285 128.578, 134.848 155.084 C 117.852 176.100, 108.795 195.067, 102.894 222 C 99.638 236.859, 99.628 261.719, 102.872 277.224 C 112.706 324.238, 140.662 361.822, 181.234 382.575 C 203.844 394.141, 224.705 399.184, 250 399.200 C 275.679 399.216, 296.690 394.021, 319.806 381.938 C 334.274 374.375, 344.008 367.101, 356.500 354.515 C 377.778 333.077, 391.755 306.233, 397.643 275.500 C 400.273 261.767, 400.034 236.705, 397.138 222.604 C 391.899 197.094, 382.031 176.057, 365.947 156.108 C 343.456 128.212, 312.621 109.942, 276.445 103.079 C 262.102 100.359, 237.069 100.319, 223 102.995 M 228.728 105.467 C 185.860 111.622, 147.284 137.285, 124.666 174.696 C 103.912 209.025, 98.521 252.656, 110.119 292.424 C 113.755 304.892, 124.140 326.015, 131.541 336 C 180.701 402.318, 273.501 415.704, 339 365.925 C 371.034 341.579, 391.034 305.428, 395.085 264.549 C 400.784 207.041, 374.157 154.305, 324.172 124.104 C 310.548 115.872, 291.204 108.758, 275 106.019 C 264.205 104.194, 239.633 103.901, 228.728 105.467 M 360 180.624 C 355.597 181.563, 350.273 181.825, 343.500 181.436 C 337.904 181.114, 330.485 181.348, 326.653 181.965 C 310.092 184.636, 296.897 196.361, 290.927 213.712 C 289.864 216.801, 289.235 219.568, 289.528 219.861 C 289.821 220.154, 293.572 216.875, 297.863 212.574 C 307.292 203.125, 315.366 197.531, 322.621 195.422 C 329.269 193.489, 332.690 194.153, 337.483 198.307 L 341.167 201.500 332.334 209.585 C 327.475 214.032, 315 225.391, 304.612 234.826 C 282.058 255.311, 279.763 258.130, 279.190 266.044 C 278.643 273.616, 280.354 278.406, 285.412 283.464 C 295.480 293.532, 311.472 291.582, 318.602 279.417 C 323.908 270.362, 322.264 259.525, 314.434 251.936 C 312.545 250.105, 311.004 248.133, 311.010 247.554 C 311.027 245.704, 324.980 233.778, 326.462 234.347 C 328.485 235.123, 335.762 244.597, 338.526 250.052 C 347.412 267.587, 340.968 291.670, 324.328 303.118 C 309.660 313.210, 289.315 312.853, 274.706 302.246 C 258.121 290.205, 253.166 265.465, 263.645 247.025 C 265.060 244.536, 271.005 237.910, 276.858 232.301 L 287.500 222.101 283.519 218.022 C 281.329 215.778, 278.981 214.068, 278.301 214.221 C 275.437 214.867, 255.942 234.358, 252.978 239.539 C 251.259 242.543, 249.675 245, 249.457 245 C 249.240 245, 247.542 242.624, 245.685 239.721 C 242.479 234.710, 224.176 216.814, 221.651 216.221 C 220.997 216.068, 218.686 217.761, 216.516 219.984 L 212.569 224.025 223.650 234.763 C 231.798 242.658, 235.448 246.999, 237.440 251.163 C 250.192 277.814, 233.954 307.710, 204.392 312.009 C 197.496 313.012, 195.345 312.948, 189.997 311.578 C 181.367 309.367, 174.873 305.616, 169.091 299.503 C 153.057 282.549, 153.231 257.497, 169.500 240.303 L 174.500 235.019 181.975 241.890 L 189.449 248.760 185.768 252.835 C 177.395 262.103, 175.734 271.289, 180.773 280.466 C 190.964 299.024, 219.025 292.808, 220.783 271.602 C 221.597 261.793, 220.351 260.207, 188.881 230.978 C 173.271 216.480, 160.341 204.228, 160.147 203.751 C 159.576 202.346, 163.235 198.836, 166.877 197.296 C 170.828 195.624, 176.447 196.284, 182.542 199.134 C 187.902 201.641, 198.645 210.276, 204.486 216.773 C 207.072 219.649, 209.568 221.767, 210.033 221.480 C 211.088 220.828, 207.778 211.032, 204.852 206.149 C 198.808 196.064, 191.447 189.581, 181.594 185.665 C 177.451 184.019, 172.858 183.484, 157 182.801 C 146.275 182.339, 135.529 181.857, 133.120 181.730 C 129.418 181.536, 128.435 181.906, 126.771 184.121 L 124.801 186.743 126.151 189.220 C 126.893 190.583, 133.334 197.053, 140.465 203.599 C 147.596 210.144, 155.882 217.780, 158.879 220.566 L 164.328 225.631 158.273 233.066 C 154.942 237.155, 151.077 242.782, 149.682 245.571 C 133.564 277.815, 153.069 317, 189 324.562 C 200.637 327.011, 215.358 324.735, 225.851 318.863 C 228.794 317.216, 231.321 316.011, 231.466 316.184 C 231.611 316.358, 233.253 319.594, 235.115 323.375 C 239.805 332.902, 245.611 339, 249.991 339 C 254.651 339, 260.873 332.300, 265.587 322.206 L 269.245 314.373 276.873 318.150 C 292.898 326.084, 312.248 325.363, 328 316.245 C 334.808 312.304, 343.752 303.270, 348.044 296 C 352.482 288.482, 356 276.099, 356 267.994 C 356 255.625, 350.286 241.253, 341.250 230.892 C 338.313 227.525, 336.043 224.412, 336.205 223.975 C 336.367 223.539, 342.080 218.110, 348.900 211.912 C 368.765 193.858, 375 187.594, 375 185.692 C 375 183.324, 370.558 178.969, 368.295 179.119 C 367.308 179.185, 363.575 179.862, 360 180.624" stroke="none" fill="#f5c81d" fill-rule="evenodd"/></svg>